<?xml version="1.0" encoding="UTF-8" standalone="no"?>
<svg xmlns="http://www.w3.org/2000/svg" xml:space="preserve" width="128" height="128">
  <g transform="scale(.45) translate(-57,-58)">
    <path fill="#fff" d="M130 130h200v130H130z"/>
    <path fill="#A6A6A6" d="
M199.91667116 105.6302382
s-84.29180001.00007866-105.44791902 5.49739608
c-11.32771618 3.16506938-20.655211 12.49266687-23.82031238 23.98698305-5.49727075 21.15613367-5.49739608 64.9687477-5.49739608 64.9687477
s.00012533 43.97893404 5.49739608 64.80208104
c3.16510139 11.49416018 12.3260082 20.65517366 23.82031238 23.82032038 21.32270701 5.6638401 105.44791902 5.66405342 105.44791902 5.66405342
s84.45890802-.00006666 105.61458836-5.49738675c11.49438685-3.16508005 20.655107-12.15954686 23.65364037-23.82032038 5.66390676-20.98976034 5.66406676-64.80208104 5.66406676-64.80208104
s.16645334-43.9792807-5.66406676-65.13541437c-2.99853338-11.49431618-12.15925352-20.65511233-23.65364037-23.65364971-21.15568034-5.83046276-105.61458836-5.83072943-105.61458836-5.83072943z
m10 53.97395285 70.13281446 40.47917398 -70.13281445 40.31250732z
m-70.8203071 0 70.13281446 40.47917398 -70.13281445 40.31250732z
"/>
  </g>
  <g>
    <path fill="#222" d="M20 10 L118 108 L108 118 L10 20 z"/>
  </g>
</svg>
